<svg width="252" height="22" viewBox="0 0 252 22" fill="none" xmlns="http://www.w3.org/2000/svg">
<g opacity="0.5">
<path fill-rule="evenodd" clip-rule="evenodd" d="M137 11C137 17.0751 132.075 22 126 22C119.925 22 115 17.0751 115 11C115 4.92487 119.925 0 126 0C132.075 0 137 4.92487 137 11ZM133 12H127V18H125V12H119V10H125V4H127V10H133V12Z" fill="#DCDBDD"/>
<path d="M251 12H140C140 11.321 139.952 10.6532 139.858 10H251C251.552 10 252 10.4477 252 11C252 11.5523 251.552 12 251 12Z" fill="#DCDBDD"/>
<path d="M112 12C112 11.321 112.048 10.6532 112.142 10H1C0.447715 10 0 10.4477 0 11C0 11.5523 0.447715 12 1 12H112Z" fill="#DCDBDD"/>
</g>
</svg>
