<svg width="32" height="32" viewBox="0 0 32 32" fill="none" xmlns="http://www.w3.org/2000/svg">
<path fill-rule="evenodd" clip-rule="evenodd" d="M10.5 22V9C10.5 8.72386 10.7239 8.5 11 8.5H17.5858C17.7184 8.5 17.8456 8.55268 17.9393 8.64645L18 8.70711V12H21.2929L21.3536 12.0607C21.4473 12.1544 21.5 12.2816 21.5 12.4142V22C21.5 22.2761 21.2761 22.5 21 22.5H11C10.7239 22.5 10.5 22.2761 10.5 22ZM10 9V22C10 22.5523 10.4477 23 11 23H21C21.5523 23 22 22.5523 22 22V12.4142C22 12.149 21.8946 11.8946 21.7071 11.7071L20 10L18.2929 8.29289C18.1054 8.10536 17.851 8 17.5858 8H11C10.4477 8 10 8.44772 10 9Z" fill="black"/>
</svg>
