<svg width="41" height="40" viewBox="0 0 41 40" fill="none" xmlns="http://www.w3.org/2000/svg">
<circle cx="20.5112" cy="20" r="20" fill="#DCDBDD"/>
<g clip-path="url(#clip0_4290_10493)">
<path d="M27.8612 18.04C27.1812 14.59 24.1512 12 20.5112 12C17.6212 12 15.1112 13.64 13.8612 16.04C10.8512 16.36 8.51117 18.91 8.51117 22C8.51117 25.31 11.2012 28 14.5112 28H27.5112C30.2712 28 32.5112 25.76 32.5112 23C32.5112 20.36 30.4612 18.22 27.8612 18.04ZM27.5112 26H14.5112C12.3012 26 10.5112 24.21 10.5112 22C10.5112 19.95 12.0412 18.24 14.0712 18.03L15.1412 17.92L15.6412 16.97C16.5912 15.14 18.4512 14 20.5112 14C23.1312 14 25.3912 15.86 25.9012 18.43L26.2012 19.93L27.7312 20.04C29.2912 20.14 30.5112 21.45 30.5112 23C30.5112 24.65 29.1612 26 27.5112 26ZM16.5112 21H19.0612V24H21.9612V21H24.5112L20.5112 17L16.5112 21Z" fill="#6F6E77"/>
</g>
<defs>
<clipPath id="clip0_4290_10493">
<rect width="24" height="24" fill="white" transform="translate(8.51117 8)"/>
</clipPath>
</defs>
</svg>
